<svg height="30" viewBox="0 0 140 30" width="140" xmlns="http://www.w3.org/2000/svg"><path d="m10.683 22v-5.712h1.365c1.61 0 2.8315-.3885 3.6645-1.1655s1.2495-1.9425 1.2495-3.4965c0-.658-.084-1.267-.252-1.827s-.4305-1.0465-.7875-1.4595-.8085-.7385-1.3545-.9765-1.19-.357-1.932-.357h-5.859v14.994zm.735-8.526h-.735v-3.654h.735c1.008 0 1.512.609 1.512 1.827 0 .63-.1295 1.092-.3885 1.386s-.6335.441-1.1235.441zm11.24025 8.757c1.568 0 2.695-.3535 3.381-1.0605s1.043-1.7605 1.071-3.1605h-3.402c0 .77-.0945 1.2915-.2835 1.5645s-.4515.4095-.7875.4095c-.266 0-.504-.1015-.714-.3045s-.315-.6125-.315-1.2285v-1.491h5.607v-1.155c0-1.036-.0945-1.9005-.2835-2.5935s-.476-1.253-.861-1.68-.861-.7315-1.428-.9135-1.2285-.273-1.9845-.273c-.854 0-1.5855.1085-2.1945.3255s-1.1095.5635-1.5015 1.0395-.679 1.092-.861 1.848-.273 1.68-.273 2.772c0 1.078.0805 1.995.2415 2.751s.4305 1.3685.8085 1.8375.875.805 1.491 1.008 1.379.3045 2.289.3045zm1.029-7.329h-2.079v-.504c0-.602.0735-1.043.2205-1.323s.4165-.42.8085-.42c.406 0 .6825.14.8295.42s.2205.721.2205 1.323zm8.38425 7.098v-6.195c0-.756.1855-1.281.5565-1.575s.8925-.441 1.5645-.441c.154 0 .308.007.462.021s.315.035.483.063v-3.528h-.609c-.56 0-1.071.1785-1.533.5355s-.798.8785-1.008 1.5645h-.042v-1.806h-3.654v11.361zm8.93025.231c.63 0 1.2425-.0665 1.8375-.1995s1.1235-.392 1.5855-.777.833-.9135 1.113-1.5855.42-1.533.42-2.583v-1.113h-3.78c0 .714-.0175 1.3055-.0525 1.7745s-.0945.8435-.1785 1.1235-.203.4795-.357.5985-.35.1785-.588.1785c-.294 0-.5285-.077-.7035-.231s-.308-.427-.399-.819-.1505-.9205-.1785-1.5855-.042-1.5015-.042-2.5095.014-1.8445.042-2.5095.0875-1.1935.1785-1.5855.224-.665.399-.819.4095-.231.7035-.231c.378 0 .651.154.819.462s.252.889.252 1.743v.84h3.78v-.945c0-.728-.0875-1.3825-.2625-1.9635s-.455-1.078-.84-1.491-.8855-.7315-1.5015-.9555-1.365-.336-2.247-.336c-1.008 0-1.855.1365-2.541.4095s-1.239.7175-1.659 1.3335-.7175 1.421-.8925 2.415-.2625 2.205-.2625 3.633c0 1.4.0735 2.5935.2205 3.5805s.4165 1.792.8085 2.415.938 1.0675 1.638 1.3335 1.596.399 2.688.399zm10.16925-12.411v-2.814h-3.78v2.814zm0 12.18v-11.361h-3.78v11.361zm5.48625 0v-7.497c0-.476.07-.819.21-1.029s.378-.315.714-.315.574.105.714.315.21.553.21 1.029v7.497h3.78v-8.568c0-.616-.077-1.12-.231-1.512s-.364-.707-.63-.945-.5775-.4025-.9345-.4935-.7455-.1365-1.1655-.1365c-1.344 0-2.261.56-2.751 1.68h-.042v-1.386h-3.654v11.361zm9.95925.231c.588 0 1.1095-.126 1.5645-.378s.7875-.63.9975-1.134h.042c.028.238.056.462.084.672s.077.413.147.609h3.654c-.154-.294-.252-.644-.294-1.05s-.063-.875-.063-1.407v-5.544c0-.742-.1085-1.3475-.3255-1.8165s-.525-.84-.924-1.113-.875-.462-1.428-.567-1.1585-.1575-1.8165-.1575c-.434 0-.903.0455-1.407.1365s-.973.273-1.407.546-.798.658-1.092 1.155-.441 1.1585-.441 1.9845h3.276c.014-.602.105-1.0045.273-1.2075s.434-.3045.798-.3045c.644 0 .966.35.966 1.05 0 .35-.084.6195-.252.8085s-.455.3325-.861.4305l-1.491.357c-.602.14-1.106.3115-1.512.5145s-.728.448-.966.735-.4095.6265-.5145 1.0185-.1575.854-.1575 1.386c0 .49.056.938.168 1.344s.294.756.546 1.05.5775.5145.9765.6615.8855.2205 1.4595.2205zm1.428-2.478c-.28 0-.504-.112-.672-.336s-.252-.525-.252-.903.056-.6825.168-.9135.315-.4165.609-.5565c.28-.126.5355-.2065.7665-.2415s.4025-.1295.5145-.2835h.042v1.365c0 .63-.091 1.099-.273 1.407s-.483.462-.903.462zm15.0045 2.247v-6.342h1.617c.63 0 1.078.168 1.344.504s.413.798.441 1.386l.084 2.877c.014.294.042.5775.084.8505s.14.5145.294.7245h3.276v-.126c-.28-.154-.462-.441-.546-.861-.056-.42-.098-1.029-.126-1.827-.014-.406-.028-.7735-.042-1.1025s-.035-.6335-.063-.9135c-.084-.84-.301-1.449-.651-1.827s-.903-.623-1.659-.735v-.042c.854-.182 1.484-.5915 1.89-1.2285s.609-1.4595.609-2.4675c0-1.302-.35-2.2715-1.05-2.9085s-1.68-.9555-2.94-.9555h-5.586v14.994zm1.26-8.442h-1.26v-4.326h1.428c1.4 0 2.1.693 2.1 2.079 0 .812-.196 1.3895-.588 1.7325s-.952.5145-1.68.5145zm11.38725 8.673c1.386 0 2.401-.343 3.045-1.029s.994-1.687 1.05-3.003h-2.604c-.084.714-.238 1.246-.462 1.596s-.581.525-1.071.525c-.266 0-.49-.0735-.672-.2205s-.329-.343-.441-.588-.1925-.525-.2415-.84-.0735-.6405-.0735-.9765v-.903h5.733v-.651c0-.868-.056-1.6555-.168-2.3625s-.322-1.309-.63-1.806-.7315-.882-1.2705-1.155-1.2285-.4095-2.0685-.4095c-.98 0-1.764.161-2.352.483s-1.0395.756-1.3545 1.302-.525 1.169-.63 1.869-.1575 1.428-.1575 2.184c0 .714.0315 1.428.0945 2.142s.2345 1.358.5145 1.932.714 1.036 1.302 1.386 1.407.525 2.457.525zm1.491-7.161h-2.961v-.441c0-.266.0245-.532.0735-.798s.1295-.5075.2415-.7245.2625-.392.4515-.525.4305-.1995.7245-.1995.5355.0595.7245.1785.336.294.441.525.1785.511.2205.84.07.7105.084 1.1445zm7.31325 10.563v-4.683h.042c.308.448.6545.7735 1.0395.9765s.8505.3045 1.3965.3045c1.19 0 2.065-.455 2.625-1.365s.84-2.415.84-4.515-.28-3.6155-.84-4.5465-1.435-1.3965-2.625-1.3965c-.588 0-1.0815.1155-1.4805.3465s-.7595.6125-1.0815 1.1445h-.042v-1.197h-2.772v14.931zm1.533-5.565c-.644 0-1.0605-.3115-1.2495-.9345s-.2835-1.5505-.2835-2.7825.0945-2.1595.2835-2.7825.6055-.9345 1.2495-.9345c.63 0 1.0395.3115 1.2285.9345s.2835 1.5505.2835 2.7825-.0945 2.1595-.2835 2.7825-.5985.9345-1.2285.9345zm10.27425 2.163c.826 0 1.5225-.119 2.0895-.357s1.0255-.6055 1.3755-1.1025.602-1.1165.756-1.8585.231-1.596.231-2.562c0-.994-.07-1.862-.21-2.604s-.378-1.365-.714-1.869-.791-.8785-1.365-1.1235-1.295-.3605-2.163-.3465c-.826 0-1.5225.1295-2.0895.3885s-1.0255.637-1.3755 1.134-.602 1.1165-.756 1.8585-.231 1.596-.231 2.562c0 .98.07 1.8445.21 2.5935s.378 1.372.714 1.869.791.861 1.365 1.092 1.295.3395 2.163.3255zm0-1.911c-.35 0-.63-.098-.84-.294s-.3675-.469-.4725-.819-.1715-.77-.1995-1.26-.042-1.022-.042-1.596.014-1.106.042-1.596.0945-.91.1995-1.26.2625-.623.4725-.819.49-.294.84-.294c.588 0 .994.308 1.218.924s.336 1.631.336 3.045-.112 2.429-.336 3.045-.63.924-1.218.924zm9.03525 1.68v-6.783c0-.378.063-.6965.189-.9555s.294-.469.504-.63.441-.2765.693-.3465.504-.105.756-.105c.154 0 .3045.0035.4515.0105s.2975.0175.4515.0315v-2.772c-.084-.014-.1715-.0245-.2625-.0315s-.1785-.0105-.2625-.0105c-.602 0-1.113.1645-1.533.4935s-.777.7665-1.071 1.3125h-.042v-1.512h-2.772v11.298zm7.54425.063c.336 0 .6545-.0105.9555-.0315s.6125-.0315.9345-.0315v-2.016c-.098.014-.203.0245-.315.0315s-.224.0105-.336.0105c-.42 0-.6965-.0945-.8295-.2835s-.1995-.5075-.1995-.9555v-6.111h1.68v-1.974h-1.68v-3.234h-2.898v3.234h-1.47v1.974h1.47v6.468c0 .574.035 1.05.105 1.428s.1995.6825.3885.9135.462.385.819.462.8155.1155 1.3755.1155z"/></svg>